<?xml version="1.0" standalone="no"?>
<!DOCTYPE svg PUBLIC "-//W3C//DTD SVG 20010904//EN"
 "http://www.w3.org/TR/2001/REC-SVG-20010904/DTD/svg10.dtd">
<svg version="1.0" xmlns="http://www.w3.org/2000/svg"
 width="102.000000pt" height="22.000000pt" viewBox="0 0 102.000000 22.000000"
 preserveAspectRatio="xMidYMid meet">

<g transform="translate(0.000000,22.000000) scale(0.100000,-0.100000)"
fill="#000000" stroke="none">
<path d="M170 155 c-5 -12 -11 -43 -15 -68 -7 -42 -5 -47 12 -47 10 0 35 9 56
19 29 15 37 16 37 5 0 -21 21 -17 27 5 4 17 7 16 31 -11 38 -42 58 -30 67 37
5 44 10 53 25 52 16 -1 17 -8 12 -59 -6 -74 13 -79 22 -5 7 57 14 71 36 80 8
3 -13 6 -46 6 l-61 1 -7 -37 c-3 -21 -6 -51 -6 -67 l0 -29 -21 27 c-16 21 -18
30 -9 41 6 8 10 24 8 37 -2 18 -9 23 -33 23 -23 0 -30 -5 -31 -20 -3 -63 -10
-70 -32 -34 -8 12 -9 18 -3 14 17 -10 13 21 -5 36 -25 21 -55 18 -64 -6z m55
-15 c-3 -5 -13 -10 -21 -10 -8 0 -14 5 -14 10 0 6 9 10 21 10 11 0 17 -4 14
-10z m105 6 c0 -2 -7 -9 -15 -16 -12 -10 -15 -10 -15 4 0 9 7 16 15 16 8 0 15
-2 15 -4z m-114 -61 c-25 -19 -36 -19 -36 0 0 10 10 15 28 15 26 -1 26 -1 8
-15z"/>
<path d="M525 172 c-16 -12 -54 -111 -44 -117 4 -3 18 4 29 15 23 23 40 19 40
-10 0 -10 5 -22 10 -25 6 -4 10 12 9 42 -2 80 -18 115 -44 95z m15 -47 c0 -8
-4 -15 -10 -15 -5 0 -7 7 -4 15 4 8 8 15 10 15 2 0 4 -7 4 -15z"/>
<path d="M608 164 c-12 -21 -19 -104 -8 -104 6 0 14 10 19 22 8 22 9 22 25
-10 9 -17 21 -32 26 -32 15 0 12 14 -7 50 -18 30 -18 31 7 50 31 23 19 39 -13
17 -21 -14 -24 -14 -33 1 -6 9 -13 12 -16 6z"/>
<path d="M705 158 c-2 -7 -5 -34 -8 -60 l-5 -48 33 0 c18 0 39 7 46 16 12 15
10 16 -24 12 -46 -5 -48 7 -4 26 28 13 29 14 9 15 -29 1 -24 25 6 29 35 5 25
22 -13 22 -20 0 -37 -6 -40 -12z"/>
<path d="M795 133 c-14 -87 -14 -83 16 -83 34 0 59 9 59 22 0 6 -15 8 -34 6
-42 -5 -38 18 5 27 16 4 27 10 24 15 -3 4 -14 6 -25 3 -11 -3 -20 0 -20 6 0 6
8 11 19 11 10 0 24 7 31 15 11 13 7 15 -28 15 -40 0 -41 -1 -47 -37z"/>
</g>
</svg>
