<?xml version="1.0" standalone="no"?>
<!DOCTYPE svg PUBLIC "-//W3C//DTD SVG 20010904//EN"
 "http://www.w3.org/TR/2001/REC-SVG-20010904/DTD/svg10.dtd">
<svg version="1.0" xmlns="http://www.w3.org/2000/svg"
 width="875.000000pt" height="875.000000pt" viewBox="0 0 875.000000 875.000000"
 preserveAspectRatio="xMidYMid meet">

<g transform="translate(0.000000,875.000000) scale(0.100000,-0.100000)"
fill="#000000" stroke="none">
<path d="M1820 8740 l-435 -6 -120 -31 c-231 -61 -406 -139 -576 -260 -124
-88 -319 -284 -392 -394 -118 -178 -202 -367 -253 -571 -23 -92 -27 -133 -34
-373 -11 -350 -11 -3786 0 -4865 5 -528 13 -862 20 -908 15 -100 79 -284 145
-417 219 -445 631 -761 1142 -878 l98 -22 2935 0 c2346 0 2954 3 3030 13 195
27 481 146 670 280 122 86 306 270 392 392 134 189 253 475 280 670 10 76 13
683 13 3025 0 3279 7 2977 -71 3213 -80 244 -203 449 -378 630 -230 238 -461
373 -787 463 l-114 32 -1700 7 c-1922 9 -3227 9 -3865 0z m3435 -2083 c205
-49 353 -155 431 -308 13 -26 34 -83 46 -126 23 -77 23 -87 23 -608 0 -465 -3
-539 -18 -605 -34 -150 -99 -239 -210 -291 -62 -28 -158 -49 -229 -49 l-38 0
0 -59 0 -60 58 -6 c265 -27 379 -118 444 -352 21 -74 22 -102 26 -588 2 -354
0 -534 -8 -590 -38 -261 -199 -435 -471 -507 l-84 -22 -1132 -3 -1133 -4 0
2101 0 2101 1113 -4 c1000 -3 1119 -5 1182 -20z"/>
<path d="M3877 5954 c-4 -4 -7 -232 -7 -506 l0 -498 470 0 471 0 24 25 25 24
0 454 c0 433 -1 456 -19 478 l-19 24 -469 3 c-258 1 -472 -1 -476 -4z"/>
<path d="M3875 4258 c-3 -7 -4 -247 -3 -533 l3 -520 470 -3 c259 -1 480 0 492
3 55 13 53 -4 53 529 0 488 0 493 -21 512 -20 18 -45 19 -505 22 -388 2 -485
0 -489 -10z"/>
</g>
</svg>
